[Header]
FileType HTR
DataType HTRS
FileVersion 1
NumSegments 64
NumFrames 4
DataFrameRate 24
EulerRotationOrder ZYX
CalibrationUnits mm
RotationUnits Degrees
GlobalAxisofGravity Y
BoneLengthAxis Y
ScaleFactor 1.0
[SegmentNames&Hierarchy]
Hips	GLOBAL
Spine	Hips
Spine1	Spine
Spine2	Spine1
Neck	Spine2
Head	Neck
LeftEye	Head
RightEye	Head
LeftShoulder	Spine2
LeftArm	LeftShoulder
LeftForeArm	LeftArm
LeftHand	LeftForeArm
LeftHandThumb1	LeftHand
LeftHandThumb2	LeftHandThumb1
LeftHandThumb3	LeftHandThumb2
LeftHandThumb4	LeftHandThumb3
LeftHandIndex1	LeftHand
LeftHandIndex2	LeftHandIndex1
LeftHandIndex3	LeftHandIndex2
LeftHandIndex4	LeftHandIndex3
LeftHandMiddle1	LeftHand
LeftHandMiddle2	LeftHandMiddle1
LeftHandMiddle3	LeftHandMiddle2
LeftHandMiddle4	LeftHandMiddle3
LeftHandRing1	LeftHand
LeftHandRing2	LeftHandRing1
LeftHandRing3	LeftHandRing2
LeftHandRing4	LeftHandRing3
LeftHandPinky1	LeftHand
LeftHandPinky2	LeftHandPinky1
LeftHandPinky3	LeftHandPinky2
LeftHandPinky4	LeftHandPinky3
RightShoulder	Spine2
RightArm	RightShoulder
RightForeArm	RightArm
RightHand	RightForeArm
RightHandPinky1	RightHand
RightHandPinky2	RightHandPinky1
RightHandPinky3	RightHandPinky2
RightHandPinky4	RightHandPinky3
RightHandRing1	RightHand
RightHandRing2	RightHandRing1
RightHandRing3	RightHandRing2
RightHandRing4	RightHandRing3
RightHandMiddle1	RightHand
RightHandMiddle2	RightHandMiddle1
RightHandMiddle3	RightHandMiddle2
RightHandMiddle4	RightHandMiddle3
RightHandIndex1	RightHand
RightHandIndex2	RightHandIndex1
RightHandIndex3	RightHandIndex2
RightHandIndex4	RightHandIndex3
RightHandThumb1	RightHand
RightHandThumb2	RightHandThumb1
RightHandThumb3	RightHandThumb2
RightHandThumb4	RightHandThumb3
LeftUpLeg	Hips
LeftLeg	LeftUpLeg
LeftFoot	LeftLeg
LeftToeBase	LeftFoot
RightUpLeg	Hips
RightLeg	RightUpLeg
RightFoot	RightLeg
RightToeBase	RightFoot
[BasePosition]
Hips	0	0	0	0	0	0	1
Spine	0	0	0	0	0	0	1
Spine1	0	0	0	0	0	0	1
Spine2	0	0	0	0	0	0	1
Neck	0	0	0	0	0	0	1
Head	0	0	0	0	0	0	1
LeftEye	0	0	0	0	0	0	1
RightEye	0	0	0	0	0	0	1
LeftShoulder	0	0	0	0	0	0	1
LeftArm	0	0	0	0	0	0	1
LeftForeArm	0	0	0	0	0	0	1
LeftHand	0	0	0	0	0	0	1
LeftHandThumb1	0	0	0	0	0	0	1
LeftHandThumb2	0	0	0	0	0	0	1
LeftHandThumb3	0	0	0	0	0	0	1
LeftHandThumb4	0	0	0	0	0	0	1
LeftHandIndex1	0	0	0	0	0	0	1
LeftHandIndex2	0	0	0	0	0	0	1
LeftHandIndex3	0	0	0	0	0	0	1
LeftHandIndex4	0	0	0	0	0	0	1
LeftHandMiddle1	0	0	0	0	0	0	1
LeftHandMiddle2	0	0	0	0	0	0	1
LeftHandMiddle3	0	0	0	0	0	0	1
LeftHandMiddle4	0	0	0	0	0	0	1
LeftHandRing1	0	0	0	0	0	0	1
LeftHandRing2	0	0	0	0	0	0	1
LeftHandRing3	0	0	0	0	0	0	1
LeftHandRing4	0	0	0	0	0	0	1
LeftHandPinky1	0	0	0	0	0	0	1
LeftHandPinky2	0	0	0	0	0	0	1
LeftHandPinky3	0	0	0	0	0	0	1
LeftHandPinky4	0	0	0	0	0	0	1
RightShoulder	0	0	0	0	0	0	1
RightArm	0	0	0	0	0	0	1
RightForeArm	0	0	0	0	0	0	1
RightHand	0	0	0	0	0	0	1
RightHandPinky1	0	0	0	0	0	0	1
RightHandPinky2	0	0	0	0	0	0	1
RightHandPinky3	0	0	0	0	0	0	1
RightHandPinky4	0	0	0	0	0	0	1
RightHandRing1	0	0	0	0	0	0	1
RightHandRing2	0	0	0	0	0	0	1
RightHandRing3	0	0	0	0	0	0	1
RightHandRing4	0	0	0	0	0	0	1
RightHandMiddle1	0	0	0	0	0	0	1
RightHandMiddle2	0	0	0	0	0	0	1
RightHandMiddle3	0	0	0	0	0	0	1
RightHandMiddle4	0	0	0	0	0	0	1
RightHandIndex1	0	0	0	0	0	0	1
RightHandIndex2	0	0	0	0	0	0	1
RightHandIndex3	0	0	0	0	0	0	1
RightHandIndex4	0	0	0	0	0	0	1
RightHandThumb1	0	0	0	0	0	0	1
RightHandThumb2	0	0	0	0	0	0	1
RightHandThumb3	0	0	0	0	0	0	1
RightHandThumb4	0	0	0	0	0	0	1
LeftUpLeg	0	0	0	0	0	0	1
LeftLeg	0	0	0	0	0	0	1
LeftFoot	0	0	0	0	0	0	1
LeftToeBase	0	0	0	0	0	0	1
RightUpLeg	0	0	0	0	0	0	1
RightLeg	0	0	0	0	0	0	1
RightFoot	0	0	0	0	0	0	1
RightToeBase	0	0	0	0	0	0	1
[Hips]
45	-73.26079559	1106.425903	-842.1056519	-160.1807556	5.755910873	-2.230022192	1.0
46	-76.73736572	1119.905273	-885.9407959	-176.0612183	5.855384827	-3.705153704	1.0
47	-78.13202667	1119.287476	-945.7321777	-191.6987152	6.469278812	-3.586962223	1.0
48	-84.11940765	1100.80127	-1032.658325	-207.1889954	6.691533089	-4.495232582	1.0
[Spine]
45	0	101.8159943	1.315000057	8.70364666	-0.6736927032	-1.668422699	1.0
46	0	101.8159943	1.315000057	8.319527626	-0.8403618336	-2.316336632	1.0
47	0	101.8159943	1.315000057	7.0877285	-0.6922456026	-1.931451559	1.0
48	0	101.8159943	1.315000057	6.006278992	-0.33899647	-1.527614832	1.0
[Spine1]
45	0	100.8349991	-10.00800037	17.39281273	-0.4104049802	-2.021225929	1.0
46	0	100.8349991	-10.00800037	16.58958054	0.07125594467	-2.443420649	1.0
47	0	100.8349991	-10.00800037	14.13580799	0.2091592103	-2.020447016	1.0
48	0	100.8349991	-10.00800037	12.00834465	-0.2465047389	-2.774057388	1.0
[Spine2]
45	0	91	-13.73399925	17.39282227	-0.4104064107	-2.021225452	1.0
46	0	91	-13.73399925	16.58957481	0.07125481963	-2.443420887	1.0
47	0	91	-13.73399925	14.13580704	0.2091580033	-2.020448446	1.0
48	0	91	-13.73399925	12.00833702	-0.2465018481	-2.774054527	1.0
[Neck]
45	0	166.7169952	-25.16200066	-6.174888134	-2.624808311	-6.816972733	1.0
46	0	166.7169952	-25.16200066	1.277730465	-1.680534482	-7.120026112	1.0
47	0	166.7169952	-25.16200066	8.360899925	-0.2248658687	-7.358653545	1.0
48	0	166.7169952	-25.16200066	11.70532036	0.3516931534	-7.176949978	1.0
[Head]
45	0	96.17900085	16.84999847	-64.00860596	-10.09210682	5.161561489	1.0
46	0	96.17900085	16.84999847	-54.46482849	-9.397510529	4.396163464	1.0
47	0	96.17900085	16.84999847	-44.02854919	-6.680202484	3.729440212	1.0
48	0	96.17900085	16.84999847	-38.12573624	-6.34086132	-0.4169743657	1.0
[LeftEye]
45	30.6760006	64.09500122	92.83599854	0	0	0	1.0
46	30.6760006	64.09500122	92.83599854	0	0	0	1.0
47	30.6760006	64.09500122	92.83599854	0	0	0	1.0
48	30.6760006	64.09500122	92.83599854	0	0	0	1.0
[RightEye]
45	-30.6760006	64.09500122	92.83499908	0	0	0	1.0
46	-30.6760006	64.09500122	92.83499908	0	0	0	1.0
47	-30.6760006	64.09500122	92.83499908	0	0	0	1.0
48	-30.6760006	64.09500122	92.83499908	0	0	0	1.0
[LeftShoulder]
45	45.70400238	109.4599991	-26.28000069	8.431530952	-31.08209801	-11.12453842	1.0
46	45.70400238	109.4599991	-26.28000069	9.718183517	-33.35320282	-12.20164013	1.0
47	45.70400238	109.4599991	-26.28000069	10.63552666	-34.44280243	-13.06847095	1.0
48	45.70400238	109.4599991	-26.28000069	9.913151741	-34.27386093	-12.16941452	1.0
[LeftArm]
45	105.923996	-5.24600029	-22.32099915	-32.15231705	12.56772232	-55.025177	1.0
46	105.923996	-5.24600029	-22.32099915	-31.12187004	18.32888985	-52.56747437	1.0
47	105.923996	-5.24600029	-22.32099915	-30.671978	22.9922657	-52.10732651	1.0
48	105.923996	-5.24600029	-22.32099915	-33.41827011	21.60604858	-47.42303085	1.0
[LeftForeArm]
45	278.414978	-0.0009999999311	0	-539.8171387	-107.123085	539.5565796	1.0
46	278.414978	-0.0009999999311	0	-540.517395	-115.6824036	540.6390991	1.0
47	278.414978	-0.0009999999311	0	-540.9525146	-122.6760712	541.565918	1.0
48	278.414978	-0.0009999999311	0	-540.87854	-129.953598	541.6660767	1.0
[LeftHand]
45	283.2879944	0	0	-4.560108662	7.168130875	37.76046371	1.0
46	283.2879944	0	0	-7.456359863	-0.9364808202	37.08561325	1.0
47	283.2879944	0	0	-2.497558594	-12.74995804	33.62282181	1.0
48	283.2879944	0	0	1.319560528	-19.66573143	32.89265442	1.0
[LeftHandThumb1]
45	24.6609993	-15.75	26.8239994	1.826416492	4.653350353	15.08797455	1.0
46	24.6609993	-15.75	26.8239994	1.367006779	3.622055054	15.09845257	1.0
47	24.6609993	-15.75	26.8239994	0.7754095793	2.405550241	15.10612392	1.0
48	24.6609993	-15.75	26.8239994	0.09997999668	1.077955961	15.13280487	1.0
[LeftHandThumb2]
45	32.29800034	-18.64699936	18.64699936	4.620245457	17.53447914	4.864573956	1.0
46	32.29800034	-18.64699936	18.64699936	4.601967335	16.20266342	3.760607481	1.0
47	32.29800034	-18.64699936	18.64699936	4.588666439	14.59241009	2.470188141	1.0
48	32.29800034	-18.64699936	18.64699936	4.58485651	12.80978775	1.062662005	1.0
[LeftHandThumb3]
45	26.52600098	-15.31499958	15.31499958	3.601811159e-06	-8.438974328e-05	-6.943767221e-05	1.0
46	26.52600098	-15.31499958	15.31499958	3.601811159e-06	-8.438974328e-05	-6.943767221e-05	1.0
47	26.52600098	-15.31499958	15.31499958	3.601811159e-06	-8.438974328e-05	-6.943767221e-05	1.0
48	26.52600098	-15.31499958	15.31499958	3.601811159e-06	-8.438974328e-05	-6.943767221e-05	1.0
[LeftHandThumb4]
45	19.54599953	-11.28499985	11.28499985	0	0	0	1.0
46	19.54599953	-11.28499985	11.28499985	0	0	0	1.0
47	19.54599953	-11.28499985	11.28499985	0	0	0	1.0
48	19.54599953	-11.28499985	11.28499985	0	0	0	1.0
[LeftHandIndex1]
45	91.09299469	-5.170999527	22.60099792	-0.3370859325	-2.122986555	-15.17126369	1.0
46	91.09299469	-5.170999527	22.60099792	-0.2909170687	-1.963688493	-14.41820717	1.0
47	91.09299469	-5.170999527	22.60099792	-0.2335831821	-1.772028327	-13.50688839	1.0
48	91.09299469	-5.170999527	22.60099792	-0.1684803665	-1.561298013	-12.49825001	1.0
[LeftHandIndex2]
45	36.76399994	0	0	-1.116791725	-2.39247179	-40.01564026	1.0
46	36.76399994	0	0	-1.071244836	-2.011648417	-37.32933426	1.0
47	36.76399994	0	0	-0.992384553	-1.554400802	-34.07973099	1.0
48	36.76399994	0	0	-0.8750696182	-1.054670334	-30.48435974	1.0
[LeftHandIndex3]
45	28.83100128	0	0	-1.432096042e-06	3.907105395e-07	1.552835329e-06	1.0
46	28.83100128	0	0	-1.432096042e-06	3.907105395e-07	1.552835329e-06	1.0
47	28.83100128	0	0	-1.432096042e-06	3.907105395e-07	1.552835329e-06	1.0
48	28.83100128	0	0	-1.432096042e-06	3.907105395e-07	1.552835329e-06	1.0
[LeftHandIndex4]
45	23.92700005	0	0	0	0	0	1.0
46	23.92700005	0	0	0	0	0	1.0
47	23.92700005	0	0	0	0	0	1.0
48	23.92700005	0	0	0	0	0	1.0
[LeftHandMiddle1]
45	95.33399963	0	0	-1.197495461	-0.9641468525	-25.86961746	1.0
46	95.33399963	0	0	-1.13332665	-0.8264443278	-24.72561646	1.0
47	95.33399963	0	0	-1.05201745	-0.6616665721	-23.34150124	1.0
48	95.33399963	0	0	-0.9575156569	-0.481672585	-21.80987167	1.0
[LeftHandMiddle2]
45	36.98199844	0	0	-0.6889671683	-3.719531536	-38.7730751	1.0
46	36.98199844	0	0	-0.6975030899	-3.371841908	-35.92272186	1.0
47	36.98199844	0	0	-0.6847197413	-2.951260328	-32.47557831	1.0
48	36.98199844	0	0	-0.6410938501	-2.487816334	-28.66302109	1.0
[LeftHandMiddle3]
45	29.50900078	0	0	0	-3.180554719e-15	-7.951386796e-16	1.0
46	29.50900078	0	0	0	-3.180554719e-15	-7.951386796e-16	1.0
47	29.50900078	0	0	0	-3.180554719e-15	-7.951386796e-16	1.0
48	29.50900078	0	0	0	-3.180554719e-15	-7.951386796e-16	1.0
[LeftHandMiddle4]
45	28.3390007	0	0	0	0	0	1.0
46	28.3390007	0	0	0	0	0	1.0
47	28.3390007	0	0	0	0	0	1.0
48	28.3390007	0	0	0	0	0	1.0
[LeftHandRing1]
45	91.04499817	-0.4390000105	-18.65100098	-3.186108828	4.182553291	-37.58455276	1.0
46	91.04499817	-0.4390000105	-18.65100098	-3.162199736	4.388922215	-36.34472656	1.0
47	91.04499817	-0.4390000105	-18.65100098	-3.128576994	4.637421608	-34.84415054	1.0
48	91.04499817	-0.4390000105	-18.65100098	-3.085636139	4.910709381	-33.18314743	1.0
[LeftHandRing2]
45	31.54000092	0	0	2.942201853	-2.819888592	-47.76791	1.0
46	31.54000092	0	0	2.698043346	-2.785413504	-44.90749359	1.0
47	31.54000092	0	0	2.405405521	-2.727488756	-41.44718933	1.0
48	31.54000092	0	0	2.086414576	-2.642976999	-37.61940002	1.0
[LeftHandRing3]
45	29.37700081	0	0	1.590277359e-15	3.180554719e-15	-7.951386796e-16	1.0
46	29.37700081	0	0	1.590277359e-15	3.180554719e-15	-7.951386796e-16	1.0
47	29.37700081	0	0	1.590277359e-15	3.180554719e-15	-7.951386796e-16	1.0
48	29.37700081	0	0	1.590277359e-15	3.180554719e-15	-7.951386796e-16	1.0
[LeftHandRing4]
45	26.47500038	0	0	0	0	0	1.0
46	26.47500038	0	0	0	0	0	1.0
47	26.47500038	0	0	0	0	0	1.0
48	26.47500038	0	0	0	0	0	1.0
[LeftHandPinky1]
45	80.77799988	-4.887000084	-38.06099701	-3.810120583	8.318880081	-36.22937012	1.0
46	80.77799988	-4.887000084	-38.06099701	-3.812248468	8.70720768	-34.97026825	1.0
47	80.77799988	-4.887000084	-38.06099701	-3.810175657	9.175391197	-33.44853592	1.0
48	80.77799988	-4.887000084	-38.06099701	-3.802457809	9.691364288	-31.7646904	1.0
[LeftHandPinky2]
45	36	0	0	5.850298882	-3.915848494	-52.06966782	1.0
46	36	0	0	5.638730049	-4.040857792	-50.51236343	1.0
47	36	0	0	5.377369404	-4.18537569	-48.6146965	1.0
48	36	0	0	5.082253933	-4.335706711	-46.50798416	1.0
[LeftHandPinky3]
45	21.14200211	0	0	3.226109357e-06	2.925280342e-06	-5.739977951e-06	1.0
46	21.14200211	0	0	3.226109357e-06	2.925280342e-06	-5.739977951e-06	1.0
47	21.14200211	0	0	3.226109357e-06	2.925280342e-06	-5.739977951e-06	1.0
48	21.14200211	0	0	3.226109357e-06	2.925280342e-06	-5.739977951e-06	1.0
[LeftHandPinky4]
45	19.75699997	0	0	0	0	0	1.0
46	19.75699997	0	0	0	0	0	1.0
47	19.75699997	0	0	0	0	0	1.0
48	19.75699997	0	0	0	0	0	1.0
[RightShoulder]
45	-45.70000076	109.4620056	-26.28000069	0.9827868342	15.10067844	1.033049107	1.0
46	-45.70000076	109.4620056	-26.28000069	1.727539897	19.91675186	4.659984112	1.0
47	-45.70000076	109.4620056	-26.28000069	2.702057838	22.80650139	7.836218357	1.0
48	-45.70000076	109.4620056	-26.28000069	2.431740522	22.5835495	7.489487648	1.0
[RightArm]
45	-105.9280014	-5.248000145	-22.32099915	-24.5298748	1.718901753	36.39639664	1.0
46	-105.9280014	-5.248000145	-22.32099915	-14.08798122	-6.785253525	46.26891327	1.0
47	-105.9280014	-5.248000145	-22.32099915	-10.616292	-13.54350471	51.45127106	1.0
48	-105.9280014	-5.248000145	-22.32099915	-15.09818649	-18.28599358	51.18457031	1.0
[RightForeArm]
45	-278.414978	0	0	-177.6819611	139.1785889	-178.0717163	1.0
46	-278.414978	0	0	-178.494751	147.1878815	-179.2756653	1.0
47	-278.414978	0	0	-178.8896179	151.8861694	-179.9311676	1.0
48	-278.414978	0	0	-178.7814789	151.3641663	-180.0948944	1.0
[RightHand]
45	-283.2879944	0	0.0009999999311	2.54774642	15.21791744	-34.74263763	1.0
46	-283.2879944	0	0.0009999999311	1.858861089	17.60482788	-28.88995934	1.0
47	-283.2879944	0	0.0009999999311	2.112318754	18.52405739	-23.52540398	1.0
48	-283.2879944	0	0.0009999999311	-4.140573978	20.88856506	-24.04066086	1.0
[RightHandPinky1]
45	-80.76699829	-4.885000229	-38.06000137	-0.7515425682	-9.162788391	35.07067871	1.0
46	-80.76699829	-4.885000229	-38.06000137	-0.6025312543	-10.60582352	28.53075409	1.0
47	-80.76699829	-4.885000229	-38.06000137	-0.4033114016	-11.76250744	23.09744453	1.0
48	-80.76699829	-4.885000229	-38.06000137	-0.3620442748	-12.16129303	21.688694	1.0
[RightHandPinky2]
45	-36	0	0.0009999999311	7.69611311	6.212568283	55.57121658	1.0
46	-36	0	0.0009999999311	7.992334843	6.104733467	57.32970428	1.0
47	-36	0	0.0009999999311	8.265810013	5.995665073	58.97325897	1.0
48	-36	0	0.0009999999311	8.480873108	5.902953148	60.28488922	1.0
[RightHandPinky3]
45	-21.14200211	0	0	-1.590277359e-15	0	-7.951386796e-16	1.0
46	-21.14200211	0	0	-1.590277359e-15	0	-7.951386796e-16	1.0
47	-21.14200211	0	0	-1.590277359e-15	0	-7.951386796e-16	1.0
48	-21.14200211	0	0	-1.590277359e-15	0	-7.951386796e-16	1.0
[RightHandPinky4]
45	-19.75699997	0	0	0	0	0	1.0
46	-19.75699997	0	0	0	0	0	1.0
47	-19.75699997	0	0	0	0	0	1.0
48	-19.75699997	0	0	0	0	0	1.0
[RightHandRing1]
45	-91.03599548	-0.4390000105	-18.65100098	-1.852725983	-5.283071041	34.57801056	1.0
46	-91.03599548	-0.4390000105	-18.65100098	-1.538832664	-5.90031004	28.37716866	1.0
47	-91.03599548	-0.4390000105	-18.65100098	-1.21793294	-6.388948917	23.23564339	1.0
48	-91.03599548	-0.4390000105	-18.65100098	-1.126127005	-6.51252985	21.90204048	1.0
[RightHandRing2]
45	-31.54000092	0	0	3.218328476	3.766709805	45.93419647	1.0
46	-31.54000092	0	0	3.2247262	3.768567324	45.99599075	1.0
47	-31.54000092	0	0	3.230671644	3.770292282	46.05356979	1.0
48	-31.54000092	0	0	3.235382318	3.771669388	46.09905243	1.0
[RightHandRing3]
45	-29.37700081	0	0	5.740008078e-07	-7.531911024e-07	-2.69121324e-06	1.0
46	-29.37700081	0	0	5.740008078e-07	-7.531911024e-07	-2.69121324e-06	1.0
47	-29.37700081	0	0	5.740008078e-07	-7.531911024e-07	-2.69121324e-06	1.0
48	-29.37700081	0	0	5.740008078e-07	-7.531911024e-07	-2.69121324e-06	1.0
[RightHandRing4]
45	-26.47500038	0	0	0	0	0	1.0
46	-26.47500038	0	0	0	0	0	1.0
47	-26.47500038	0	0	0	0	0	1.0
48	-26.47500038	0	0	0	0	0	1.0
[RightHandMiddle1]
45	-95.32500458	0	0	-2.108829975	0.5158758759	22.09736061	1.0
46	-95.32500458	0	0	-1.84313941	0.05953772366	18.1122818	1.0
47	-95.32500458	0	0	-1.598223209	-0.305539608	14.79191971	1.0
48	-95.32500458	0	0	-1.531799197	-0.3971611857	13.93678188	1.0
[RightHandMiddle2]
45	-36.98199844	0	0	-0.9431914687	3.606635332	44.43126678	1.0
46	-36.98199844	0	0	-0.9465872645	3.492198944	43.35576248	1.0
47	-36.98199844	0	0	-0.9478440285	3.385489702	42.35349655	1.0
48	-36.98199844	0	0	-0.9474932551	3.301249266	41.56244278	1.0
[RightHandMiddle3]
45	-29.50900078	0	0	1.856611448e-06	-0.002022909233	1.577868488e-06	1.0
46	-29.50900078	0	0	1.856611448e-06	-0.002022909233	1.577868488e-06	1.0
47	-29.50900078	0	0	1.856611448e-06	-0.002022909233	1.577868488e-06	1.0
48	-29.50900078	0	0	1.856611448e-06	-0.002022909233	1.577868488e-06	1.0
[RightHandMiddle4]
45	-28.3390007	0	0.0009999999311	0	0	0	1.0
46	-28.3390007	0	0.0009999999311	0	0	0	1.0
47	-28.3390007	0	0.0009999999311	0	0	0	1.0
48	-28.3390007	0	0.0009999999311	0	0	0	1.0
[RightHandIndex1]
45	-91.08300018	-5.167999744	22.60099792	-1.349514008	1.555972576	12.04589844	1.0
46	-91.08300018	-5.167999744	22.60099792	-1.046217203	0.9429439902	8.114322662	1.0
47	-91.08300018	-5.167999744	22.60099792	-0.7718176842	0.4549509287	4.831534386	1.0
48	-91.08300018	-5.167999744	22.60099792	-0.69830513	0.3338099718	3.987128258	1.0
[RightHandIndex2]
45	-36.76399994	0	0	-1.409164429	1.634172559	40.27799225	1.0
46	-36.76399994	0	0	-1.438870311	1.781023741	41.44434738	1.0
47	-36.76399994	0	0	-1.463873029	1.918418527	42.53144455	1.0
48	-36.76399994	0	0	-1.481753111	2.027183294	43.38953781	1.0
[RightHandIndex3]
45	-28.83100128	0	0	-3.180554719e-15	0	0	1.0
46	-28.83100128	0	0	-3.180554719e-15	0	0	1.0
47	-28.83100128	0	0	-3.180554719e-15	0	0	1.0
48	-28.83100128	0	0	-3.180554719e-15	0	0	1.0
[RightHandIndex4]
45	-23.92700005	0	0	0	0	0	1.0
46	-23.92700005	0	0	0	0	0	1.0
47	-23.92700005	0	0	0	0	0	1.0
48	-23.92700005	0	0	0	0	0	1.0
[RightHandThumb1]
45	-24.64799881	-15.72700024	26.82600021	-4.241373539	0.224145785	-14.00623798	1.0
46	-24.64799881	-15.72700024	26.82600021	-3.729177237	1.729222417	-14.38277626	1.0
47	-24.64799881	-15.72700024	26.82600021	-3.292709827	2.977779865	-14.7028513	1.0
48	-24.64799881	-15.72700024	26.82600021	-3.075623274	3.387365818	-14.90554428	1.0
[RightHandThumb2]
45	-32.29800034	-18.64699936	18.64699936	9.113223076	-14.33547688	-2.052506447	1.0
46	-32.29800034	-18.64699936	18.64699936	6.694447517	-10.28413868	0.7261927724	1.0
47	-32.29800034	-18.64699936	18.64699936	4.835283756	-6.951366901	2.782768488	1.0
48	-32.29800034	-18.64699936	18.64699936	4.436750889	-6.104921818	3.429379463	1.0
[RightHandThumb3]
45	-26.52600098	-15.31399918	15.31399918	-3.81245151e-08	-0.00121095567	-0.001221005921	1.0
46	-26.52600098	-15.31399918	15.31399918	-3.81245151e-08	-0.00121095567	-0.001221005921	1.0
47	-26.52600098	-15.31399918	15.31399918	-3.81245151e-08	-0.00121095567	-0.001221005921	1.0
48	-26.52600098	-15.31399918	15.31399918	-3.81245151e-08	-0.00121095567	-0.001221005921	1.0
[RightHandThumb4]
45	-19.54599953	-11.28499985	11.28499985	0	0	0	1.0
46	-19.54599953	-11.28499985	11.28499985	0	0	0	1.0
47	-19.54599953	-11.28499985	11.28499985	0	0	0	1.0
48	-19.54599953	-11.28499985	11.28499985	0	0	0	1.0
[LeftUpLeg]
45	82.07800293	-67.51699829	-15.99599934	-82.89110565	2.475643635	-17.52072144	1.0
46	82.07800293	-67.51699829	-15.99599934	-79.61742401	5.989708424	-6.184397697	1.0
47	82.07800293	-67.51699829	-15.99599934	-73.03017426	9.510881424	6.524121761	1.0
48	82.07800293	-67.51699829	-15.99599934	-75.86412811	13.25410938	17.07268906	1.0
[LeftLeg]
45	0	-443.7049866	2.845999956	101.9503632	-15.12994576	-6.831024647	1.0
46	0	-443.7049866	2.845999956	81.47386169	-5.790647507	-17.94301605	1.0
47	0	-443.7049866	2.845999956	62.06665802	0.2142447978	-25.13653183	1.0
48	0	-443.7049866	2.845999956	55.38877869	14.07581902	-20.60236931	1.0
[LeftFoot]
45	0	-444.2789917	-29.8219986	33.32014465	2.11790657	-2.135607481	1.0
46	0	-444.2789917	-29.8219986	33.25690079	11.63596249	-8.744410515	1.0
47	0	-444.2789917	-29.8219986	21.19301796	14.06308174	-11.16851234	1.0
48	0	-444.2789917	-29.8219986	4.315443516	9.23455143	-6.125356674	1.0
[LeftToeBase]
45	0	-87.28699493	107.1060028	9.490261078	-1.762966804e-07	-6.3732532e-06	1.0
46	0	-87.28699493	107.1060028	10.9467802	-4.996732514e-06	-1.224469179e-05	1.0
47	0	-87.28699493	107.1060028	7.744236469	-2.327916945e-06	-5.593476544e-06	1.0
48	0	-87.28699493	107.1060028	3.719751835	-4.988296041e-06	-1.047135243e-06	1.0
[RightUpLeg]
45	-82.07800293	-67.51699829	-15.99599934	-70.44558716	-3.04293561	-6.128567219	1.0
46	-82.07800293	-67.51699829	-15.99599934	-68.80621338	-4.518780231	0.07098028809	1.0
47	-82.07800293	-67.51699829	-15.99599934	-67.04541016	-6.165414333	6.942590714	1.0
48	-82.07800293	-67.51699829	-15.99599934	-78.55488586	-5.703943253	11.82213688	1.0
[RightLeg]
45	0	-443.7049866	2.861999989	78.76177216	-4.503261566	-32.9626236	1.0
46	0	-443.7049866	2.861999989	63.69003296	-4.292149544	-21.92223358	1.0
47	0	-443.7049866	2.861999989	52.5266571	-2.290414095	-16.23354721	1.0
48	0	-443.7049866	2.861999989	60.1385498	5.616697311	-10.24232769	1.0
[RightFoot]
45	0	-444.2770081	-29.83799934	-4.985021114	7.858452797	-18.96731186	1.0
46	0	-444.2770081	-29.83799934	2.439963818	4.813371658	-12.55607891	1.0
47	0	-444.2770081	-29.83799934	5.443313122	9.81088829	-0.6211531758	1.0
48	0	-444.2770081	-29.83799934	-4.723678112	12.59925556	12.15627766	1.0
[RightToeBase]
45	0	-87.28699493	107.1060028	2.165010452	-4.75865545e-06	-4.935246579e-06	1.0
46	0	-87.28699493	107.1060028	5.211237907	1.13676615e-05	1.125009021e-05	1.0
47	0	-87.28699493	107.1060028	7.826855659	-1.097882978e-05	3.855851901e-06	1.0
48	0	-87.28699493	107.1060028	9.032013893	4.039467058e-06	-3.129392553e-06	1.0
[EndOfFile]
